<svg width="170" height="175" fill="none" xmlns="http://www.w3.org/2000/svg"><path d="M135.336 90.043a.962.962 0 00-.066-.212 61.54 61.54 0 00-9.388-18.197v-.007c-.219-.287-.432-.574-.651-.855l-.08-.109a29.223 29.223 0 01-2.558-3.965 5.34 5.34 0 002.604-1.995 5.59 5.59 0 00.995-3.18V47.852a.893.893 0 00-.006-.137 5.546 5.546 0 00-1.601-3.778 5.235 5.235 0 00-3.708-1.554h-2.73c.777-15.77 6.318-34.96 6.375-35.157a1.373 1.373 0 00-.673-1.611 1.288 1.288 0 00-.596-.146H46.744c-.206 0-.41.05-.594.146a1.338 1.338 0 00-.468.405 1.388 1.388 0 00-.207 1.206c.06.198 5.6 19.38 6.375 35.157h-6.714c-.352 0-.69.145-.938.401-.25.257-.39.604-.39.966v7.875a14.695 14.695 0 00-6.751 5.522 15.355 15.355 0 00-2.552 8.478v17.773c.001.363.142.71.39.966.25.256.587.4.938.402h.752a57.35 57.35 0 00-1.854 5.051.92.92 0 00-.073.226c-6.906 22.08-.957 48.562 17.73 78.853.12.194.287.354.483.465a1.3 1.3 0 00.64.17h62.972c.224 0 .444-.059.641-.17a1.35 1.35 0 00.482-.465c18.711-30.332 24.636-56.752 17.73-78.853zm-50.343 59.035a84.782 84.782 0 00-6.916-21.649 17.205 17.205 0 0013.846-.055 84.866 84.866 0 00-6.93 21.704zm-47.83-67.047v-2.734h10.63v2.734h-10.63zm87.723-1.046c-1.934.93-3.887 1.798-5.82 2.591a1.248 1.248 0 01-.492.103 1.317 1.317 0 01-.745-.238 1.372 1.372 0 01-.585-1.149 1.397 1.397 0 01.403-.962c.125-.125.274-.224.436-.29a103.11 103.11 0 005.674-2.536 1.295 1.295 0 011.017-.048c.332.124.603.379.752.708.15.329.167.705.047 1.047a1.36 1.36 0 01-.687.774zm-11.78 4.826a93.798 93.798 0 01-6.093 1.84 1.307 1.307 0 01-1.216-.29 1.4 1.4 0 01-.222-1.8c.184-.278.459-.475.774-.556a88.786 88.786 0 005.927-1.791 1.295 1.295 0 011.014.078c.314.163.553.449.663.793.11.345.083.72-.076 1.044-.159.323-.436.57-.771.682zm-37.472 4.232c-.053 0-.1-.007-.153-.007a90.94 90.94 0 01-6.292-.964 1.306 1.306 0 01-.498-.186 1.343 1.343 0 01-.389-.371 1.388 1.388 0 01-.225-1.045 1.38 1.38 0 01.575-.892 1.306 1.306 0 011.022-.192c2.027.383 4.08.697 6.1.93.34.034.653.203.875.47a1.392 1.392 0 01-.096 1.884 1.308 1.308 0 01-.919.373zm4.91-.943c.017-.362.172-.702.43-.947.259-.246.6-.377.952-.366 2.04.075 4.113.075 6.16-.007a1.294 1.294 0 01.953.364 1.402 1.402 0 01.07 1.934 1.297 1.297 0 01-.925.437 85.325 85.325 0 01-3.242.061 78.54 78.54 0 01-3.116-.061 1.316 1.316 0 01-.926-.435 1.395 1.395 0 01-.359-.98h.003zm12.517-.28a1.398 1.398 0 01.278-1.007c.11-.14.244-.258.397-.344.153-.087.32-.141.495-.16a84.875 84.875 0 006.099-.93 1.29 1.29 0 011.022.193 1.355 1.355 0 01.575.891 1.412 1.412 0 01-.225 1.045c-.104.15-.236.276-.389.372a1.303 1.303 0 01-.498.185 86.39 86.39 0 01-6.286.957 1.15 1.15 0 01-.152.014c-.327 0-.642-.125-.885-.35a1.381 1.381 0 01-.433-.867h.002zm-28.456-2.147a1.374 1.374 0 01-.47.738 1.304 1.304 0 01-.812.287 1.16 1.16 0 01-.339-.048 93.903 93.903 0 01-6.092-1.839 1.341 1.341 0 01-.77-.685 1.405 1.405 0 01-.074-1.044c.112-.345.351-.63.666-.792.315-.163.68-.19 1.015-.076a92.865 92.865 0 005.927 1.79c.34.093.63.32.808.633.178.313.228.685.139 1.036h.002zm58.148-14.725c-23.998 11.348-48.315 11.84-72.3 1.45v-6.406h69.281a33.103 33.103 0 003.017 4.956h.002zm.782-10.425a2.779 2.779 0 01-.779 1.933 2.623 2.623 0 01-1.877.802H50.524a12.55 12.55 0 012.529-6.281 12.017 12.017 0 015.374-3.953v4.765c0 .363.14.71.389.967.249.256.587.4.939.4s.69-.144.94-.4c.248-.257.388-.604.388-.967v-5.394c.441-.049.885-.074 1.328-.075h6.644v2.735c0 .362.14.71.39.966a1.302 1.302 0 001.878 0c.249-.256.388-.604.388-.966V53.32h7.977v5.47c0 .362.14.71.388.966.25.256.587.4.94.4.352 0 .69-.144.939-.4a1.39 1.39 0 00.389-.967V53.32h7.969v2.735c0 .362.14.71.388.966a1.306 1.306 0 001.879 0c.249-.256.389-.604.389-.966V53.32h7.972v5.47c0 .362.14.71.389.966.25.256.587.4.94.4.352 0 .69-.144.939-.4a1.39 1.39 0 00.389-.967V53.32h7.978v2.735c0 .362.14.71.389.966.249.257.587.4.939.4s.69-.143.939-.4c.249-.256.389-.604.389-.966V53.32h6.644a5.14 5.14 0 002.656-.738l.003 8.941zm-75.03-53.32h72.99c-1.442 5.346-5.621 21.84-6.052 35.41a.892.892 0 00-.007.137c-.07 2.28-.026 4.561.133 6.836H54.43a68.014 68.014 0 00.127-6.973c-.432-13.57-4.61-30.064-6.053-35.41zM37.163 65.625c.004-3.263 1.266-6.391 3.508-8.698 2.242-2.307 5.281-3.604 8.451-3.607h4.904a14.306 14.306 0 00-2.685 2.502c-.013.007-.013.007-.013.014a1.447 1.447 0 00-.133.164c-.013.014-.026.02-.026.034a15.19 15.19 0 00-3.37 9.454.946.946 0 00-.006.137v10.938h-10.63V65.624zm-.332 26.476c15.469 6.195 28.424 17.634 36.728 32.429.058.172.146.332.259.472.007.007.013.007.013.014 4.977 9.078 8.73 20.425 9.833 34.521-.18 2.345-.283 4.765-.312 7.26H54.245c-17.589-28.732-23.42-53.806-17.414-74.696zm78.924 74.696H86.009c.034-2.454.133-4.833.32-7.137a.292.292 0 01.006-.109c1.09-14.11 4.847-25.464 9.813-34.549a.119.119 0 00.033-.027c.157-.168.267-.376.319-.602 8.312-14.722 21.237-26.099 36.656-32.266 5.992 20.932.178 45.958-17.401 74.69z" fill="#fff"/></svg>