<svg width="349" height="349" viewBox="0 0 349 349" fill="none" xmlns="http://www.w3.org/2000/svg">
<path d="M0 305V44C0 19.6995 19.6995 0 44 0H305C329.301 0 349 19.6995 349 44V305C349 329.301 329.301 349 305 349H44C19.6995 349 0 329.301 0 305Z" fill="#0E0B0B"/>
<path d="M113.512 236.682H95.1371C91.1704 236.682 88.5454 236.04 87.2621 234.757C86.0954 233.473 85.5121 230.848 85.5121 226.882V120.307C85.5121 116.223 86.1537 113.54 87.4371 112.257C88.7204 110.857 91.2871 110.157 95.1371 110.157H113.512V236.682ZM157.087 158.982V169.482C157.087 173.682 156.679 176.365 155.862 177.532C155.045 178.582 152.712 179.107 148.862 179.107H120.512V158.982H157.087ZM164.087 110.157V125.207C164.087 129.173 163.445 131.798 162.162 133.082C160.879 134.248 158.195 134.832 154.112 134.832H120.512V110.157H164.087ZM209.407 110.332V160.557C209.407 162.423 209.815 163.765 210.632 164.582C211.565 165.398 213.548 165.807 216.582 165.807H229.532V182.432H207.307C200.657 182.432 195.29 181.732 191.207 180.332C187.24 178.932 184.265 176.482 182.282 172.982C180.415 169.365 179.19 165.515 178.607 161.432C178.14 157.348 177.907 151.865 177.907 144.982C177.907 137.982 178.14 132.673 178.607 129.057C179.19 125.44 180.415 122.057 182.282 118.907C184.265 115.757 187.24 113.54 191.207 112.257C195.29 110.973 200.657 110.332 207.307 110.332H209.407ZM236.532 165.807H238.632C243.648 165.807 247.498 165.923 250.182 166.157C252.982 166.273 255.665 166.798 258.232 167.732C260.798 168.548 262.548 169.54 263.482 170.707C264.532 171.873 265.465 173.915 266.282 176.832C267.215 179.632 267.74 182.665 267.857 185.932C267.973 189.198 268.032 193.865 268.032 199.932C268.032 205.998 267.973 210.84 267.857 214.457C267.74 217.957 267.215 221.34 266.282 224.607C265.465 227.757 264.532 229.973 263.482 231.257C262.548 232.54 260.798 233.707 258.232 234.757C255.665 235.69 252.982 236.273 250.182 236.507C247.498 236.623 243.648 236.682 238.632 236.682H236.532V165.807ZM180.357 197.657H202.407C204.04 197.657 205.032 197.89 205.382 198.357C205.732 198.823 205.907 199.815 205.907 201.332V214.982C205.907 216.848 206.14 218.19 206.607 219.007C207.19 219.707 208.532 220.057 210.632 220.057H229.532V236.682H203.807C195.29 236.682 188.815 235.223 184.382 232.307C180.065 229.39 177.907 224.315 177.907 217.082V201.332C177.907 198.882 178.723 197.657 180.357 197.657ZM216.407 110.157H238.632C247.148 110.157 253.565 111.615 257.882 114.532C262.315 117.448 264.532 122.523 264.532 129.757V145.507C264.532 147.957 263.715 149.182 262.082 149.182H240.032C238.398 149.182 237.407 148.948 237.057 148.482C236.707 148.015 236.532 147.023 236.532 145.507V131.857C236.532 129.99 236.24 128.707 235.657 128.007C235.19 127.19 233.907 126.782 231.807 126.782H216.407V110.157Z" fill="white"/>
</svg>
