<svg width="222" height="221" viewBox="0 0 222 221" fill="none" xmlns="http://www.w3.org/2000/svg">
<path d="M215.18 127.77C228.777 94.4431 222 54.8187 194.807 27.7885C158.592 -8.23759 99.8458 -8.23759 63.6312 27.7885L39.4593 51.8201L130.751 142.421C150.65 115.819 187.512 109.265 215.18 127.77ZM121.126 161.912L25.9921 67.5413C14.2083 86.9466 16.6255 112.52 33.4595 129.27L48.3511 144.091L3.89213 182.388C0.180022 185.601 -0.035798 191.255 3.46049 194.725L26.5101 217.643C29.9632 221.113 35.6609 220.898 38.8982 217.214L77.4437 172.964L92.8533 188.256C101.357 196.695 112.104 201.322 123.198 202.521C120.133 195.239 118.45 187.271 118.45 178.918C118.406 173.006 119.529 167.352 121.126 161.912ZM180.563 137.837C157.686 137.837 139.125 156.257 139.125 178.961C139.125 201.664 157.686 220.084 180.563 220.084C203.44 220.084 222 201.664 222 178.961C222 156.257 203.44 137.837 180.563 137.837Z" fill="white"/>
</svg>
