<svg width="44" height="43" viewBox="0 0 44 43" fill="none" xmlns="http://www.w3.org/2000/svg">
<path d="M21.7972 0.000976562C9.75994 0.000976562 0.000305176 9.47582 0.000305176 21.1542C0.000305176 32.8394 9.75994 42.3074 21.7972 42.3074C33.8344 42.3074 43.5941 32.8394 43.5941 21.1542C43.5941 9.47582 33.8344 0.000976562 21.7972 0.000976562ZM21.7972 38.2132C12.0825 38.2132 4.21905 30.5852 4.21905 21.1542C4.21905 11.7295 12.0828 4.09514 21.7972 4.09514C31.5083 4.09514 39.3753 11.7266 39.3753 21.1542C39.3753 30.5818 31.5152 38.2132 21.7972 38.2132ZM31.2229 16.4459C31.2229 22.1651 24.8578 22.2531 24.8578 24.3666V24.9072C24.8578 25.4724 24.3856 25.9307 23.8031 25.9307H19.7912C19.2087 25.9307 18.7365 25.4724 18.7365 24.9072V24.1686C18.7365 21.1197 21.1183 19.9009 22.9182 18.9216C24.4617 18.0818 25.4076 17.5107 25.4076 16.3986C25.4076 14.9276 23.4741 13.9513 21.911 13.9513C19.8729 13.9513 18.932 14.8875 17.6095 16.5075C17.2529 16.9442 16.6022 17.0253 16.1447 16.6886L13.6992 14.8891C13.2503 14.5588 13.1498 13.9452 13.4668 13.4934C15.5434 10.5342 18.1884 8.87167 22.3064 8.87167C26.6193 8.87167 31.2229 12.1388 31.2229 16.4459ZM25.4886 30.7072C25.4886 32.6826 23.8326 34.2896 21.7972 34.2896C19.7617 34.2896 18.1058 32.6826 18.1058 30.7072C18.1058 28.7319 19.7617 27.1248 21.7972 27.1248C23.8326 27.1248 25.4886 28.7319 25.4886 30.7072Z" fill="#A79292"/>
</svg>
