<svg width="182" height="175" fill="none" xmlns="http://www.w3.org/2000/svg"><path d="M172.481 29.504l-4.849-6.105a18.463 18.463 0 00-6.502-5.138 19.208 19.208 0 00-8.193-1.855h-6.484c-.137.001-.273.02-.405.055-9.541 2.734-17.946 8.282-24.03 15.86l-1.279 1.585a1.094 1.094 0 00-.178.294c-.917 2.024-8.866 19.954-6.285 26.578 2.282 5.838 5.944 11.286 9.185 15.408-21.825 14.63-10.479 36.73-6.718 44.051a10.157 10.157 0 011.102 3.692c-6.555-1.422-15.285-2.208-21.705 1.319-8.837 4.854-24.413 6.658-29.312 7.123v-16.146a.839.839 0 00-.028-.233 1.288 1.288 0 00-.391-.738l-17.07-16.413a1.433 1.433 0 00-.463-.298 1.474 1.474 0 00-.546-.106H24.186a1.454 1.454 0 00-1.009.404l-17.07 16.413c-.21.199-.348.458-.391.738a.837.837 0 00-.029.233v23.296c.001.363.15.712.413.971l17.077 16.447c.132.128.29.23.463.299.173.069.358.105.546.105H48.33c.187 0 .373-.036.546-.105.173-.069.33-.171.463-.299l8.36-8.052c3.228.909 26.98 7.547 37.346 9.276 2.262.321 4.547.465 6.832.431 13.487 0 34.957-3.268 36.045-3.432.234-.037.455-.129.642-.269.188-.139.336-.322.431-.531a39.418 39.418 0 002.823-9.467c.775-3.876 1.443-7.226 4.656-11.669 27.286-37.694 20.625-64.074 19.686-67.232a291.805 291.805 0 015.148-4.717c4.948-4.587 5.004-11.108 5.004-11.382v-9.61c-.025-3.9-1.37-7.683-3.831-10.781zM47.739 101.172l16.245 15.647v22.053l-16.245 15.62H24.776l-16.245-15.62v-22.053l16.245-15.647H47.74zm125.73-51.276c0 .054-.05 5.619-4.117 9.399a280.278 280.278 0 00-6.007 5.53c-6.818 6.426-12.74 12.496-12.818 12.572a1.337 1.337 0 00-.385.98c.012.362.174.706.449.954s.642.382 1.019.37c.377-.012.734-.167.993-.431.064-.076 5.076-5.21 11.169-11.02 1.315 6.46 4.023 30.734-19.629 63.417-3.562 4.922-4.316 8.702-5.119 12.708a38.76 38.76 0 01-2.332 8.203c-4.891.718-31.523 4.498-41.163 2.892-9.079-1.518-29.34-7.069-35.533-8.791l6.42-6.187c.263-.259.411-.608.412-.971v-4.402c4.778-.424 21.122-2.222 30.727-7.499 6.157-3.384 15.185-2.133 21.406-.601a61.928 61.928 0 017.046 2.18c.343.117.72.103 1.053-.039.333-.142.596-.402.736-.726.139-.323.144-.686.014-1.013a1.392 1.392 0 00-.716-.744 59.739 59.739 0 00-6.37-2.051 12.304 12.304 0 00-1.436-5.605c-6.057-11.792-11.986-28.787 5.929-40.681 2.709 3.233 4.821 5.277 5.02 5.469a1.462 1.462 0 001.002.403 1.476 1.476 0 001.01-.403 1.359 1.359 0 00.417-.968 1.358 1.358 0 00-.417-.967c-.107-.102-10.778-10.445-15.307-22.06-1.834-4.689 3.754-19.024 6.15-24.37l1.173-1.449c5.678-7.072 13.509-12.265 22.401-14.854h6.271c2.405.006 4.777.543 6.933 1.57a15.608 15.608 0 015.501 4.35l4.849 6.104c2.086 2.619 3.227 5.82 3.249 9.12v9.61z" fill="#000"/><path d="M145.373 86.427a1.464 1.464 0 00-.524.178 1.36 1.36 0 00-.65.84 1.314 1.314 0 00-.028.534c2.14 14.423-7.55 28.116-7.65 28.252a1.326 1.326 0 00-.085 1.413c.121.221.301.406.523.535.222.129.476.198.735.199.231.001.458-.053.661-.157a1.38 1.38 0 00.505-.438c.427-.588 10.423-14.69 8.119-30.194a1.36 1.36 0 00-.553-.901 1.463 1.463 0 00-1.053-.261zM40.694 91.759a4.9 4.9 0 00.775-.062 4.44 4.44 0 002.24-1.059 4.172 4.172 0 001.272-2.065c.007-.013.007-.02.014-.027C47.75 78.651 53.07 69.59 60.457 62.21c7.388-7.379 16.603-12.834 26.782-15.855l.675 3.171c.118.47.364.903.711 1.252.348.35.786.604 1.27.737.483.134.995.141 1.483.023a2.88 2.88 0 001.293-.7l11.759-11.415a4.079 4.079 0 001.16-1.81 3.939 3.939 0 00.059-2.127 4.045 4.045 0 00-1.058-1.868 4.288 4.288 0 00-1.889-1.106l-15.59-4.437a2.945 2.945 0 00-1.471-.04 2.872 2.872 0 00-1.294.674c-.362.33-.627.746-.768 1.206-.141.46-.154.948-.037 1.414l.818 3.275c-17.717 5.859-32.462 17.965-41.256 33.872a68.212 68.212 0 00-6.853 18.046c-.15.688-.125 1.4.073 2.076a4.316 4.316 0 001.064 1.807c.424.433.937.777 1.506 1.01.569.233 1.182.35 1.8.344zM26.71 148.62a1.458 1.458 0 001.01.403h17.076a1.458 1.458 0 001.01-.403l12.071-11.607a1.33 1.33 0 00.42-.971v-16.42c0-.18-.037-.359-.11-.525a1.374 1.374 0 00-.31-.446l-12.071-11.607a1.458 1.458 0 00-1.01-.403H27.72a1.458 1.458 0 00-1.01.403l-12.07 11.607a1.375 1.375 0 00-.311.446 1.32 1.32 0 00-.11.525v16.42a1.329 1.329 0 00.42.971L26.71 148.62zm.306-20.788a8.685 8.685 0 012.096-5.643 9.32 9.32 0 015.343-3.083 9.571 9.571 0 016.165.877c1.887.969 3.367 2.537 4.186 4.438a8.574 8.574 0 01.308 5.985c-.62 1.969-1.932 3.67-3.711 4.813a9.534 9.534 0 01-6.045 1.457 9.408 9.408 0 01-5.634-2.562 8.796 8.796 0 01-2.01-2.879 8.52 8.52 0 01-.698-3.403z" fill="#000"/></svg>