<svg width="40" height="40" fill="none" xmlns="http://www.w3.org/2000/svg"><path d="M38.5 20c0 10.253-8.094 18.5-18 18.5s-18-8.247-18-18.5 8.094-18.5 18-18.5 18 8.247 18 18.5z" stroke="#fff" stroke-width="3"/><path d="M18.01 23.544c0-1.14.139-2.047.415-2.723.277-.675.781-1.338 1.514-1.99.74-.659 1.233-1.192 1.477-1.599.244-.415.366-.85.366-1.306 0-1.375-.634-2.063-1.904-2.063-.602 0-1.087.188-1.453.562-.358.366-.545.875-.561 1.526h-3.54c.016-1.555.517-2.771 1.501-3.65.993-.88 2.344-1.319 4.053-1.319 1.725 0 3.064.42 4.016 1.258.952.83 1.428 2.006 1.428 3.528a4.33 4.33 0 01-.464 1.965c-.309.61-.85 1.29-1.623 2.038l-.989.94c-.618.595-.972 1.29-1.062 2.088l-.049.745H18.01zm-.354 3.747c0-.545.183-.993.55-1.343.374-.358.85-.537 1.428-.537s1.05.18 1.416.537c.374.35.561.798.561 1.343 0 .537-.183.98-.549 1.33-.358.35-.834.526-1.428.526s-1.074-.175-1.44-.525c-.359-.35-.538-.794-.538-1.331z" fill="#fff"/></svg>