<svg width="182" height="175" viewBox="0 0 182 175" fill="none" xmlns="http://www.w3.org/2000/svg">
<path d="M172.481 29.5039L167.632 23.3994C165.901 21.2312 163.677 19.4733 161.13 18.261C158.582 17.0486 155.779 16.4142 152.937 16.4062H146.453C146.316 16.4072 146.18 16.4256 146.048 16.4609C136.507 19.1952 128.102 24.7429 122.018 32.3203L120.739 33.9062C120.664 33.9951 120.604 34.0942 120.561 34.2002C119.644 36.2236 111.695 54.1543 114.276 60.7783C116.558 66.6162 120.22 72.0644 123.461 76.1865C101.636 90.8154 112.982 112.916 116.743 120.237C117.344 121.392 117.718 122.643 117.845 123.929C111.29 122.507 102.56 121.721 96.1401 125.248C87.3031 130.102 71.7265 131.906 66.8281 132.371V116.225C66.8296 116.146 66.82 116.068 66.7997 115.992C66.7564 115.712 66.6191 115.453 66.4087 115.254L49.3391 98.8408C49.2066 98.7131 49.0493 98.6117 48.8761 98.5425C48.7029 98.4732 48.5171 98.4376 48.3295 98.4375H24.1861C23.9985 98.4376 23.8128 98.4732 23.6395 98.5425C23.4663 98.6117 23.309 98.7131 23.1766 98.8408L6.10695 115.254C5.8965 115.453 5.75921 115.712 5.71593 115.992C5.69558 116.068 5.68601 116.146 5.6875 116.225V139.521C5.68831 139.884 5.83623 140.233 6.09984 140.492L23.1766 156.939C23.309 157.067 23.4663 157.169 23.6395 157.238C23.8128 157.307 23.9985 157.343 24.1861 157.343H48.3295C48.5171 157.343 48.7029 157.307 48.8761 157.238C49.0493 157.169 49.2066 157.067 49.3391 156.939L57.6997 148.887C60.9273 149.796 84.6798 156.434 95.0452 158.163C97.3067 158.484 99.5916 158.628 101.877 158.594C115.364 158.594 136.834 155.326 137.922 155.162C138.156 155.125 138.377 155.033 138.564 154.893C138.752 154.754 138.9 154.571 138.995 154.362C140.332 151.328 141.28 148.149 141.818 144.895C142.593 141.019 143.261 137.669 146.474 133.226C173.76 95.5322 167.099 69.1523 166.16 65.9941C167.859 64.4014 169.601 62.8018 171.308 61.2773C176.256 56.6904 176.312 50.1689 176.312 49.8955V40.2842C176.287 36.3859 174.942 32.6018 172.481 29.5039ZM47.7395 101.172L63.9844 116.819V138.872L47.7395 154.492H24.7762L8.53125 138.872V116.819L24.7762 101.172H47.7395ZM173.469 49.8955C173.469 49.9502 173.419 55.5146 169.352 59.2949C167.355 61.0723 165.314 62.9658 163.345 64.8252C156.527 71.251 150.605 77.3213 150.527 77.3965C150.268 77.6612 150.13 78.0137 150.142 78.3765C150.154 78.7393 150.316 79.0827 150.591 79.3311C150.866 79.5794 151.233 79.7125 151.61 79.701C151.987 79.6894 152.344 79.5342 152.603 79.2695C152.667 79.1943 157.679 74.0605 163.772 68.25C165.087 74.71 167.795 98.9844 144.143 131.667C140.581 136.589 139.827 140.369 139.024 144.375C138.552 147.181 137.771 149.931 136.692 152.578C131.801 153.296 105.169 157.076 95.5287 155.47C86.45 153.952 66.1883 148.401 59.996 146.679L66.4158 140.492C66.6794 140.233 66.8273 139.884 66.8281 139.521V135.119C71.6056 134.695 87.9501 132.897 97.5548 127.62C103.712 124.236 112.74 125.487 118.961 127.019C121.354 127.606 123.707 128.334 126.007 129.199C126.35 129.316 126.727 129.302 127.06 129.16C127.393 129.018 127.656 128.758 127.796 128.434C127.935 128.111 127.94 127.748 127.81 127.421C127.679 127.094 127.423 126.828 127.094 126.677C125.014 125.876 122.887 125.191 120.724 124.626C120.699 122.676 120.208 120.758 119.288 119.021C113.231 107.229 107.302 90.2344 125.217 78.3398C127.926 81.5732 130.038 83.6172 130.237 83.8086C130.368 83.9359 130.524 84.0371 130.696 84.1063C130.868 84.1755 131.053 84.2114 131.239 84.2119C131.618 84.2097 131.98 84.0649 132.249 83.8086C132.381 83.6816 132.486 83.5308 132.557 83.3649C132.629 83.1989 132.666 83.021 132.666 82.8413C132.666 82.6616 132.629 82.4837 132.557 82.3178C132.486 82.1518 132.381 82.001 132.249 81.874C132.142 81.7715 121.471 71.4287 116.942 59.8145C115.108 55.125 120.696 40.79 123.092 35.4443L124.265 33.9951C129.943 26.9229 137.774 21.7301 146.666 19.1406H152.937C155.342 19.1472 157.714 19.6842 159.87 20.7106C162.025 21.7369 163.908 23.225 165.371 25.0605L170.22 31.165C172.306 33.7837 173.447 36.9855 173.469 40.2842V49.8955Z" fill="black"/>
<path d="M145.373 86.4268C145.188 86.4527 145.01 86.5134 144.849 86.6055C144.689 86.6975 144.549 86.8191 144.437 86.9632C144.326 87.1073 144.245 87.2712 144.199 87.4454C144.153 87.6196 144.144 87.8008 144.171 87.9785C146.311 102.402 136.621 116.095 136.521 116.231C136.375 116.437 136.29 116.678 136.275 116.926C136.26 117.175 136.315 117.423 136.436 117.644C136.557 117.865 136.737 118.05 136.959 118.179C137.181 118.308 137.435 118.377 137.694 118.378C137.925 118.379 138.152 118.325 138.355 118.221C138.558 118.117 138.732 117.967 138.86 117.783C139.287 117.195 149.283 103.093 146.979 87.5889C146.926 87.2299 146.727 86.9059 146.426 86.6879C146.125 86.47 145.746 86.3761 145.373 86.4268Z" fill="black"/>
<path d="M40.6941 91.7588C40.9537 91.7585 41.2128 91.7379 41.469 91.6973C42.3069 91.5613 43.0853 91.1933 43.7091 90.6385C44.3329 90.0836 44.7749 89.366 44.981 88.5733C44.9881 88.5596 44.9881 88.5528 44.9952 88.546C47.7486 78.6509 53.0685 69.5896 60.4569 62.2105C67.8452 54.8313 77.0602 49.3757 87.2391 46.3546L87.9145 49.5264C88.0322 49.9967 88.2775 50.4286 88.6254 50.7779C88.9733 51.1273 89.4114 51.3817 89.8949 51.5151C90.3784 51.6486 90.8901 51.6563 91.3778 51.5375C91.8654 51.4187 92.3116 51.1776 92.6707 50.8389L104.43 39.4229C104.975 38.9281 105.376 38.3034 105.59 37.6121C105.804 36.9207 105.825 36.1872 105.649 35.4859C105.474 34.7845 105.109 34.14 104.591 33.6178C104.074 33.0956 103.422 32.714 102.702 32.5118L87.1112 28.0753C86.6332 27.9378 86.126 27.924 85.6407 28.0353C85.1555 28.1466 84.7093 28.379 84.3473 28.7091C83.9853 29.0391 83.7203 29.4551 83.5789 29.9152C83.4376 30.3752 83.4249 30.8629 83.5423 31.3292L84.3598 34.6036C66.643 40.463 51.8985 52.5686 43.1041 68.4756C39.9668 74.1593 37.6605 80.2323 36.2507 86.5225C36.1007 87.21 36.1258 87.9221 36.3238 88.5982C36.5219 89.2743 36.8871 89.8943 37.3882 90.4053C37.8122 90.8382 38.3248 91.1819 38.8938 91.4148C39.4627 91.6478 40.0757 91.7649 40.6941 91.7588Z" fill="black"/>
<path d="M26.7099 148.62C26.8423 148.748 26.9997 148.849 27.1729 148.918C27.3461 148.988 27.5319 149.023 27.7195 149.023H44.7962C44.9838 149.023 45.1695 148.988 45.3427 148.918C45.516 148.849 45.6733 148.748 45.8057 148.62L57.8774 137.013C58.0103 136.885 58.1158 136.734 58.1877 136.568C58.2597 136.401 58.2968 136.222 58.2969 136.042V119.622C58.2968 119.442 58.2597 119.263 58.1877 119.097C58.1158 118.93 58.0103 118.779 57.8774 118.651L45.8057 107.044C45.6733 106.916 45.516 106.815 45.3427 106.746C45.1695 106.676 44.9838 106.641 44.7962 106.641H27.7195C27.5319 106.641 27.3461 106.676 27.1729 106.746C26.9997 106.815 26.8423 106.916 26.7099 107.044L14.6382 118.651C14.5053 118.779 14.3999 118.93 14.3279 119.097C14.2559 119.263 14.2188 119.442 14.2188 119.622V136.042C14.2188 136.222 14.2559 136.401 14.3279 136.568C14.3999 136.734 14.5053 136.885 14.6382 137.013L26.7099 148.62ZM27.0156 127.832C27.0143 125.775 27.755 123.78 29.1116 122.189C30.4682 120.598 32.3566 119.508 34.4551 119.106C36.5536 118.704 38.7322 119.013 40.6197 119.983C42.5073 120.952 43.9868 122.52 44.8063 124.421C45.6258 126.322 45.7345 128.437 45.1138 130.406C44.4931 132.375 43.1816 134.076 41.4026 135.219C39.6236 136.363 37.4873 136.877 35.3578 136.676C33.2283 136.474 31.2374 135.569 29.7243 134.114C28.8624 133.292 28.1791 132.313 27.7141 131.235C27.2491 130.156 27.0117 129 27.0156 127.832Z" fill="black"/>
</svg>
