<svg width="170" height="175" viewBox="0 0 170 175" fill="none" xmlns="http://www.w3.org/2000/svg">
<path d="M135.336 90.043C135.328 89.9989 135.317 89.9555 135.303 89.9131C135.295 89.8846 135.283 89.8571 135.27 89.8311C133.175 83.2854 130.016 77.1531 125.928 71.6953C125.911 71.6765 125.895 71.6559 125.882 71.6338V71.627C125.663 71.3398 125.45 71.0527 125.231 70.7725L125.151 70.6631C124.195 69.4155 123.339 68.0895 122.593 66.6982C123.642 66.3282 124.552 65.6309 125.197 64.7033C125.842 63.7758 126.19 62.6642 126.192 61.5234V47.8516C126.194 47.8059 126.191 47.7602 126.186 47.7148C126.151 46.289 125.577 44.9335 124.585 43.9374C123.593 42.9413 122.263 42.3834 120.877 42.3828H118.147C118.924 26.6123 124.465 7.42383 124.522 7.22559C124.583 7.02269 124.597 6.80759 124.561 6.59827C124.525 6.38896 124.441 6.19151 124.316 6.02246C124.194 5.85065 124.034 5.71096 123.849 5.61475C123.664 5.51854 123.46 5.46852 123.253 5.46875H46.744C46.5376 5.46939 46.3342 5.51956 46.1498 5.61528C45.9655 5.71099 45.8054 5.84961 45.6823 6.02013C45.5591 6.19066 45.4762 6.3884 45.4402 6.59765C45.4043 6.8069 45.4162 7.0219 45.475 7.22559C45.5348 7.42383 51.0757 26.6055 51.85 42.3828H45.1357C44.7837 42.3839 44.4465 42.5283 44.1977 42.7844C43.9489 43.0406 43.8086 43.3877 43.8075 43.75V51.625C41.0691 52.7248 38.7164 54.6491 37.0569 57.1467C35.3974 59.6443 34.5082 62.5991 34.5054 65.625V83.3984C34.5064 83.7607 34.6467 84.1078 34.8955 84.364C35.1444 84.6202 35.4816 84.7645 35.8335 84.7656H36.5845C35.8873 86.4199 35.269 88.1084 34.7311 89.8174C34.7139 89.8474 34.7005 89.8795 34.6913 89.9131C34.6771 89.9555 34.666 89.9989 34.6581 90.043C27.7518 112.123 33.7012 138.605 52.3886 168.896C52.5089 169.09 52.6749 169.25 52.8711 169.361C53.0673 169.472 53.2875 169.531 53.5115 169.531H116.483C116.707 169.531 116.927 169.472 117.124 169.361C117.32 169.25 117.486 169.09 117.606 168.896C136.317 138.564 142.242 112.144 135.336 90.043ZM84.9934 149.078C83.6652 141.569 81.3379 134.284 78.0771 127.429C80.2694 128.381 82.6261 128.867 85.0054 128.857C87.3848 128.848 89.7377 128.343 91.9229 127.374C88.6538 134.246 86.322 141.55 84.9934 149.078ZM37.1629 82.0312V79.2969H47.7932V82.0312H37.1629ZM124.886 80.9854C122.952 81.915 120.999 82.7832 119.066 83.5762C118.91 83.6435 118.743 83.6783 118.574 83.6787C118.309 83.6772 118.049 83.5945 117.829 83.4412C117.609 83.2879 117.439 83.0708 117.339 82.8174C117.274 82.6504 117.242 82.4719 117.244 82.2921C117.247 82.1124 117.283 81.9349 117.353 81.7698C117.422 81.6047 117.522 81.4553 117.647 81.33C117.772 81.2048 117.921 81.1063 118.083 81.04C119.963 80.2676 121.877 79.4131 123.757 78.5039C124.076 78.3498 124.442 78.3327 124.774 78.4564C125.106 78.5801 125.377 78.8345 125.526 79.1636C125.676 79.4926 125.693 79.8694 125.573 80.2111C125.452 80.5527 125.205 80.8312 124.886 80.9854ZM113.106 85.8115C111.086 86.4951 109.033 87.1172 107.013 87.6504C106.905 87.6835 106.793 87.6996 106.681 87.6982C106.356 87.7006 106.042 87.5803 105.797 87.36C105.553 87.1398 105.395 86.835 105.354 86.5032C105.313 86.1714 105.392 85.8357 105.575 85.5596C105.759 85.2835 106.034 85.0862 106.349 85.0049C108.316 84.4854 110.309 83.8838 112.276 83.2139C112.61 83.1005 112.975 83.1285 113.29 83.2919C113.604 83.4553 113.843 83.7406 113.953 84.0851C114.063 84.4296 114.036 84.805 113.877 85.1288C113.718 85.4525 113.441 85.6981 113.106 85.8115H113.106ZM75.6341 90.043C75.5809 90.043 75.5345 90.0361 75.4813 90.0361C73.3955 89.79 71.2758 89.4688 69.1893 89.0723C69.0127 89.0454 68.8431 88.9822 68.6907 88.8864C68.5383 88.7906 68.4062 88.6641 68.3024 88.5145C68.1986 88.3649 68.1252 88.1953 68.0865 88.0159C68.0478 87.8364 68.0447 87.6508 68.0773 87.47C68.1099 87.2893 68.1776 87.1172 68.2763 86.964C68.375 86.8108 68.5027 86.6797 68.6518 86.5784C68.8008 86.4772 68.9682 86.408 69.1439 86.3749C69.3195 86.3418 69.4999 86.3455 69.6741 86.3857C71.7008 86.7686 73.7534 87.083 75.7735 87.3154C76.1132 87.3505 76.4267 87.5188 76.649 87.7855C76.8713 88.0522 76.9853 88.3967 76.9673 88.7477C76.9494 89.0986 76.8009 89.4289 76.5526 89.6701C76.3044 89.9113 75.9754 90.0448 75.6341 90.043ZM80.5441 89.0996C80.5615 88.7381 80.7161 88.398 80.9745 88.1526C81.2329 87.9072 81.5746 87.7759 81.9261 87.7871C83.9654 87.8623 86.0386 87.8623 88.0852 87.7803C88.2596 87.7735 88.4336 87.8022 88.5973 87.8647C88.7609 87.9272 88.911 88.0223 89.0389 88.1445C89.1669 88.2667 89.2702 88.4136 89.343 88.5769C89.4158 88.7402 89.4566 88.9167 89.4632 89.0962C89.4697 89.2757 89.4418 89.4548 89.3811 89.6233C89.3204 89.7917 89.2281 89.9462 89.1094 90.078C88.9907 90.2097 88.8479 90.316 88.6893 90.391C88.5307 90.4659 88.3593 90.5079 88.1848 90.5146C87.1084 90.5557 86.0187 90.5762 84.9422 90.5762C83.9056 90.5762 82.8564 90.5557 81.8264 90.5146C81.474 90.5018 81.1408 90.3457 80.8999 90.0804C80.6591 89.8152 80.5302 89.4625 80.5415 89.0996H80.5441ZM93.0611 88.8193C93.0405 88.6409 93.0545 88.4601 93.1022 88.2873C93.15 88.1145 93.2306 87.9532 93.3394 87.8127C93.4482 87.6722 93.5829 87.5553 93.7359 87.4687C93.8888 87.3822 94.0569 87.3278 94.2305 87.3086C96.2565 87.0762 98.3098 86.7617 100.33 86.3789C100.504 86.3386 100.684 86.3349 100.86 86.368C101.036 86.4011 101.203 86.4704 101.352 86.5716C101.501 86.6728 101.629 86.804 101.728 86.9571C101.826 87.1103 101.894 87.2824 101.927 87.4632C101.959 87.6439 101.956 87.8296 101.917 88.009C101.879 88.1885 101.805 88.3581 101.702 88.5077C101.598 88.6572 101.466 88.7837 101.313 88.8796C101.161 88.9754 100.991 89.0386 100.815 89.0654C98.7282 89.4619 96.6158 89.7832 94.5293 90.0225C94.4787 90.0304 94.4277 90.035 94.3766 90.0361C94.0501 90.0355 93.7352 89.9111 93.4922 89.6866C93.2492 89.4622 93.095 89.1534 93.0591 88.8193H93.0611ZM64.6053 86.6729C64.5319 86.9657 64.3661 87.2252 64.1341 87.4108C63.9021 87.5963 63.6168 87.6974 63.323 87.6982C63.2085 87.6991 63.0944 87.683 62.9843 87.6504C60.9649 87.1172 58.9116 86.4951 56.8916 85.8115C56.5569 85.6972 56.2801 85.4507 56.122 85.1263C55.9639 84.8019 55.9375 84.4262 56.0485 84.0817C56.1596 83.7372 56.399 83.4523 56.7141 83.2895C57.0293 83.1268 57.3943 83.0996 57.7289 83.2139C59.6952 83.877 61.6888 84.4854 63.6557 85.0049C63.996 85.0971 64.2868 85.3245 64.4644 85.6372C64.6419 85.9499 64.6917 86.3224 64.6027 86.6729H64.6053ZM122.753 71.9482C98.7554 83.2959 74.4381 83.7881 50.4535 73.3975V66.9922H119.734C120.595 68.733 121.605 70.3915 122.751 71.9482H122.753ZM123.535 61.5234C123.534 62.2483 123.254 62.9432 122.756 63.4557C122.258 63.9683 121.583 64.2567 120.879 64.2578H50.5245C50.7801 61.962 51.6561 59.7859 53.053 57.977C54.45 56.168 56.3117 54.7986 58.4269 54.0244V58.7891C58.4269 59.1517 58.5668 59.4994 58.8159 59.7558C59.0649 60.0122 59.4028 60.1562 59.755 60.1562C60.1072 60.1562 60.4451 60.0122 60.6941 59.7558C60.9432 59.4994 61.0831 59.1517 61.0831 58.7891V53.3955C61.5242 53.3463 61.9676 53.3212 62.4113 53.3203H69.0552V56.0547C69.0552 56.4173 69.1951 56.765 69.4442 57.0214C69.6933 57.2778 70.0311 57.4219 70.3833 57.4219C70.7356 57.4219 71.0734 57.2778 71.3224 57.0214C71.5715 56.765 71.7114 56.4173 71.7114 56.0547V53.3203H79.6875V58.7891C79.6875 59.1517 79.8274 59.4994 80.0765 59.7558C80.3256 60.0122 80.6634 60.1562 81.0156 60.1562C81.3679 60.1562 81.7057 60.0122 81.9548 59.7558C82.2038 59.4994 82.3437 59.1517 82.3437 58.7891V53.3203H90.3125V56.0547C90.3125 56.4173 90.4524 56.765 90.7015 57.0214C90.9506 57.2778 91.2884 57.4219 91.6406 57.4219C91.9929 57.4219 92.3307 57.2778 92.5798 57.0214C92.8288 56.765 92.9687 56.4173 92.9687 56.0547V53.3203H100.941V58.7891C100.941 59.1517 101.081 59.4994 101.33 59.7558C101.58 60.0122 101.917 60.1562 102.27 60.1562C102.622 60.1562 102.96 60.0122 103.209 59.7558C103.458 59.4994 103.598 59.1517 103.598 58.7891V53.3203H111.576V56.0547C111.576 56.4173 111.716 56.765 111.965 57.0214C112.214 57.2778 112.552 57.4219 112.904 57.4219C113.256 57.4219 113.594 57.2778 113.843 57.0214C114.092 56.765 114.232 56.4173 114.232 56.0547V53.3203H120.876C121.809 53.3214 122.726 53.0666 123.532 52.582L123.535 61.5234ZM48.5045 8.20313H121.495C120.053 13.5488 115.874 30.0439 115.443 43.6133C115.437 43.6586 115.435 43.7043 115.436 43.75C115.366 46.0295 115.41 48.3112 115.569 50.5859H54.4305C54.5894 48.3112 54.6337 46.0295 54.5634 43.75C54.5646 43.7043 54.5624 43.6586 54.5567 43.6133C54.1251 30.0439 49.9461 13.5488 48.5045 8.20313ZM37.1629 65.625C37.1673 62.3619 38.4289 59.2339 40.6709 56.9271C42.9129 54.6203 45.9522 53.3232 49.122 53.3203H54.0255C53.0304 54.0325 52.1283 54.8734 51.3413 55.8223C51.328 55.8291 51.328 55.8291 51.328 55.8359C51.2799 55.8872 51.2355 55.942 51.1952 56C51.182 56.0137 51.1687 56.0205 51.1687 56.0342C49.0157 58.6886 47.825 62.0303 47.7999 65.4883C47.7944 65.5336 47.7921 65.5793 47.7932 65.625V76.5625H37.1629V65.625ZM36.8309 92.1006C52.3 98.2961 65.2552 109.735 73.5589 124.53C73.6173 124.702 73.705 124.862 73.8179 125.002C73.8245 125.009 73.8311 125.009 73.8311 125.016C78.8076 134.094 82.5616 145.441 83.6639 159.537C83.4846 161.882 83.3806 164.302 83.3518 166.797H54.2446C36.6562 138.065 30.8251 112.991 36.8309 92.1006ZM115.755 166.797H86.0094C86.0426 164.343 86.1422 161.964 86.3281 159.66C86.3235 159.624 86.3257 159.586 86.3348 159.551C87.4245 145.441 91.1824 134.087 96.1476 125.002C96.1602 124.995 96.1715 124.986 96.1808 124.975C96.3375 124.807 96.4475 124.599 96.4996 124.373C104.812 109.651 117.737 98.2742 133.156 92.1074C139.148 113.039 133.334 138.065 115.755 166.797Z" fill="white"/>
</svg>
