<svg width="170" height="170" viewBox="0 0 170 170" fill="none" xmlns="http://www.w3.org/2000/svg">
<path d="M169.291 51.0032L148.041 22.6701C147.373 21.7776 146.322 21.252 145.208 21.252H24.792C23.6784 21.252 22.6268 21.7776 21.9594 22.6701L0.709532 51.0032C-0.300504 52.3452 -0.224469 54.2162 0.889492 55.4716L82.3474 147.551C83.0184 148.312 83.987 148.748 85.0003 148.748C86.0137 148.748 86.9822 148.312 87.6532 147.551L169.111 55.4716C170.224 54.2162 170.3 52.3452 169.291 51.0032ZM21.8934 44.01C17.3864 50.4361 15.3547 55.8594 14.7013 60.397L8.10749 52.9435L26.5627 28.3351H43.5978C35.0198 31.7089 27.0378 36.6737 21.8934 44.01ZM85 139.863L67.9944 120.639C68.4264 120.642 68.8105 120.65 69.2667 120.65C78.795 120.65 93.3947 119.952 105.66 116.509L85 139.863ZM120.541 98.2381C118.124 107.125 101.424 111.402 84.2287 112.909C82.4858 106.391 77.1471 92.0852 63.7501 92.0852C55.4882 92.0852 50.7521 95.7508 48.3618 98.4469L35.7251 84.1627C38.8618 84.7168 42.2969 85.0017 46.0037 85.0017C46.0177 85.0017 46.0313 85.0017 46.0452 85.0017C100.54 84.9187 116.339 90.6635 119.995 95.4467C120.679 96.3392 120.838 97.1484 120.541 98.2381ZM146.268 70.6052C138.552 56.7038 116.547 56.6686 85 56.6686C63.7501 56.6686 63.7501 49.4918 63.7501 46.0436C63.7501 38.0022 67.4406 28.4045 85.0139 28.3355H85.5395C113.807 28.446 120.337 46.4105 120.596 47.1576C121.077 48.6069 122.433 49.5857 123.958 49.5857H145.208C147.166 49.5857 148.75 48.0016 148.75 46.044V35.4193L161.892 52.9439L146.268 70.6052Z" fill="#AF0000"/>
</svg>
