<?xml version="1.0" standalone="no"?>
<!DOCTYPE svg PUBLIC "-//W3C//DTD SVG 20010904//EN"
 "http://www.w3.org/TR/2001/REC-SVG-20010904/DTD/svg10.dtd">
<svg version="1.0" xmlns="http://www.w3.org/2000/svg"
 width="300.000000pt" height="300.000000pt" viewBox="0 0 300.000000 300.000000"
 preserveAspectRatio="xMidYMid meet">
<metadata>
Created by potrace 1.11, written by Peter Selinger 2001-2013
</metadata>
<g transform="translate(0.000000,300.000000) scale(0.100000,-0.100000)"
fill="#000000" stroke="none">
<path d="M230 2991 c-83 -26 -159 -90 -201 -171 l-24 -45 0 -1275 0 -1275 27
-50 c36 -68 78 -108 150 -144 l61 -31 1251 0 1251 1 60 24 c77 32 138 93 170
170 l24 60 1 1241 c0 1120 -2 1246 -16 1290 -29 86 -77 139 -168 184 l-59 30
-1251 -1 c-688 0 -1262 -4 -1276 -8z"/>
</g>
</svg>
