<svg width="40" height="40" viewBox="0 0 40 40" fill="none" xmlns="http://www.w3.org/2000/svg">
<path d="M38.5 20C38.5 30.2533 30.4056 38.5 20.5 38.5C10.5944 38.5 2.5 30.2533 2.5 20C2.5 9.74671 10.5944 1.5 20.5 1.5C30.4056 1.5 38.5 9.74671 38.5 20Z" stroke="white" stroke-width="3"/>
<path d="M18.0103 23.5435C18.0103 22.4041 18.1486 21.4967 18.4253 20.8213C18.702 20.1458 19.2065 19.4826 19.939 18.8315C20.6795 18.1724 21.1719 17.6393 21.416 17.2324C21.6602 16.8174 21.7822 16.382 21.7822 15.9263C21.7822 14.5509 21.1475 13.8633 19.8779 13.8633C19.2757 13.8633 18.7915 14.0505 18.4253 14.4248C18.0672 14.791 17.88 15.2996 17.8638 15.9507H14.3237C14.34 14.3963 14.8405 13.1797 15.8252 12.3008C16.818 11.4219 18.1689 10.9824 19.8779 10.9824C21.6032 10.9824 22.9419 11.4015 23.894 12.2397C24.8462 13.0698 25.3223 14.2458 25.3223 15.7676C25.3223 16.4593 25.1676 17.1144 24.8584 17.7329C24.5492 18.3433 24.008 19.0228 23.2349 19.7715L22.2461 20.7114C21.6276 21.3055 21.2736 22.0013 21.1841 22.7988L21.1353 23.5435H18.0103ZM17.6562 27.291C17.6562 26.7458 17.8394 26.2982 18.2056 25.9482C18.5799 25.5902 19.056 25.4111 19.6338 25.4111C20.2116 25.4111 20.6836 25.5902 21.0498 25.9482C21.4242 26.2982 21.6113 26.7458 21.6113 27.291C21.6113 27.8281 21.4282 28.2716 21.062 28.6216C20.7039 28.9715 20.2279 29.1465 19.6338 29.1465C19.0397 29.1465 18.5596 28.9715 18.1934 28.6216C17.8353 28.2716 17.6562 27.8281 17.6562 27.291Z" fill="white"/>
</svg>
