<svg width="170" height="170" fill="none" xmlns="http://www.w3.org/2000/svg"><path d="M169.291 51.003l-21.25-28.333a3.54 3.54 0 00-2.833-1.418H24.792a3.54 3.54 0 00-2.833 1.418L.71 51.003a3.535 3.535 0 00.18 4.469l81.458 92.079a3.54 3.54 0 005.306 0l81.458-92.08a3.537 3.537 0 00.18-4.468zM21.893 44.01c-4.507 6.426-6.538 11.85-7.192 16.387l-6.594-7.453 18.456-24.609h17.035c-8.578 3.374-16.56 8.339-21.705 15.675zM85 139.863l-17.006-19.224c.432.003.817.011 1.273.011 9.528 0 24.128-.698 36.393-4.141L85 139.863zm35.541-41.625c-2.417 8.887-19.117 13.164-36.312 14.671-1.743-6.518-7.082-20.824-20.479-20.824-8.262 0-12.998 3.666-15.388 6.362L35.725 84.163c3.137.554 6.572.839 10.279.839h.041c54.495-.083 70.294 5.662 73.95 10.445.684.892.843 1.701.546 2.791zm25.727-27.633C138.552 56.704 116.547 56.67 85 56.67c-21.25 0-21.25-7.177-21.25-10.625 0-8.042 3.69-17.64 21.264-17.708h.526c28.267.11 34.797 18.075 35.056 18.822a3.545 3.545 0 003.362 2.428h21.25a3.54 3.54 0 003.542-3.542V35.419l13.142 17.525-15.624 17.661z" fill="#AF0000"/></svg>